<?xml version="1.0" encoding="utf-8"?>
<!-- Generator: Adobe Illustrator 20.1.0, SVG Export Plug-In . SVG Version: 6.00 Build 0)  -->
<svg version="1.1" id="Layer_1" xmlns="http://www.w3.org/2000/svg" xmlns:xlink="http://www.w3.org/1999/xlink" x="0px" y="0px"
	 viewBox="0 0 382.1 200" style="enable-background:new 0 0 382.1 200;" xml:space="preserve">
<style type="text/css">
	.st0{fill:#9C6EAD;}
	.st1{fill:#5C2F74;}
	.st2{fill:#483432;}
	.st3{fill:#FFFFFF;}
</style>
<g>
	<path class="st0" d="M206.9,76.7c0,0.4-0.1,0.9-0.3,1.4l-0.9,2.2c-1.7,4.1-2.7,7.9-3.2,11.4l-6.8,54.8c-0.2,1.9-0.9,3.4-2,4.6
		c-1.1,1.2-2.4,1.8-3.9,1.8h-16.6c1.8-3.2,2.9-6.4,3.3-9.7l5.4-43.8c0.3-2.6,1-4.7,2.2-6.4h-16.4c-4.8,0-8.3-1.2-10.4-3.5
		c1-7.3,3.7-13.9,8.1-19.8c3.5,3.2,7.8,4.9,13,4.9h26.3C206.1,74.8,206.9,75.4,206.9,76.7"/>
	<path class="st0" d="M261.1,76.7c0,0.4-0.1,0.9-0.3,1.4l-0.9,2.2c-1.8,4.3-2.9,8.2-3.3,11.8l-4.8,39.6c-0.2,1.8-0.9,3.4-2.1,4.5
		c-1.1,1.2-2.4,1.8-3.8,1.8h-16.6c0.9-1.6,1.6-3.1,2.2-4.7c0.5-1.6,0.9-3.2,1.1-4.9l3.5-28.8c0.3-2.6,1.1-4.8,2.2-6.4h-17.7
		c-4.8,0-8.3-1.2-10.4-3.5c0.9-7.9,3.6-14.5,8.1-19.8c3.5,3.2,7.8,4.9,13,4.9h27.6C260.4,74.8,261.1,75.4,261.1,76.7"/>
	<path class="st0" d="M325.7,76.1c0,0.4-0.1,0.9-0.4,1.4l-5,12c-1,2.5-2.3,3.7-3.8,3.7h-3.4c-2.4,0-3.9,1.8-4.3,5.3l-4.1,33.3
		c-0.2,1.8-0.9,3.4-2,4.5c-1.1,1.2-2.4,1.8-3.9,1.8h-16.6c0.9-1.6,1.6-3.1,2.2-4.7c0.5-1.6,0.9-3.2,1.1-4.9l3.1-25
		c0.2-1.5,0.8-3.2,1.8-5.2c1.3-2.5,2.9-4.2,4.7-5h-20.2c-4.8,0-8.3-1.2-10.4-3.5c0.9-7.9,3.6-14.5,8.1-19.8c3.5,3.2,7.8,4.9,13,4.9
		H324C325.2,74.8,325.7,75.2,325.7,76.1"/>
	<path class="st1" d="M214,6.2c0,0.5-0.1,1-0.4,1.6l-1.2,2.7c-0.7,1.7-1.3,3.2-1.7,4.6c-0.4,1.4-0.7,2.7-0.9,3.8l-1.7,14
		c-1.1,8.7-5.5,13-13.4,13c-4.2,0-7.2-0.2-9-0.6c0.9-1.7,1.6-3.8,1.9-6.2l1-8.6c0.2-1.3,0.4-2.5,0.8-3.7c0.3-1.2,0.8-2.4,1.4-3.5
		c-2.7-0.5-4.8-1.6-6.4-3.5c1.1-7.4,4-14,8.5-19.8c3.4,3.2,8.2,4.8,14.3,4.8h4.4C213.3,4.8,214,5.3,214,6.2"/>
	<path class="st1" d="M253.5,6.8c0,0.4-0.1,0.9-0.3,1.4l-0.9,2.3l-2.4,6.7c-0.5,1.5-0.9,3-1.2,4.3c-0.3,1.4-0.5,2.7-0.7,3.8
		l-2.5,21.4c-0.7,6.4-1.8,11.2-3.2,14.3c-1.4,3.1-3.3,5.5-5.8,7h-26c1-8.7,3.3-14.8,6.8-18.3h7.3l2.3-18.5c0.4-3.6,1.3-6.5,2.7-8.6
		H227c-3.6,0-6.3-1-8.2-3.1c1.4-8.5,4.1-15.1,8.1-19.8c3.5,3.2,8.3,4.9,14.3,4.9h10.2C252.7,4.9,253.5,5.5,253.5,6.8"/>
	<path class="st1" d="M311.3,6.8c0,0.5-0.1,1-0.2,1.4l-2,5.8c-0.8,2.3-1.4,4.4-1.9,6.3c-0.5,1.8-0.8,3.5-1,4.9l-1.1,8.7
		c-0.9,7.8-4,13.1-9.2,15.9h9.5v0.8c0,7.7-2.4,13.5-7.1,17.5h-47.5c1.1-8.7,3.4-14.8,6.8-18.3H274c6.2,0,9.7-3.2,10.5-9.5l1.2-10.3
		c0.5-3.4,1.3-5.7,2.5-6.8h-20.7c-3.5,0-6.6-1.1-9.4-3.3c1.3-6.6,4.1-13.2,8.4-19.7l5.2,3.1c2.2,1,4.9,1.5,8.2,1.5h29.3
		C310.6,4.9,311.3,5.5,311.3,6.8"/>
	<path class="st1" d="M382.1,6.1c0,0.4-0.1,0.9-0.3,1.7l-3.7,11.1c-2.9,8.9-7.3,15.5-13.1,19.8l1.3,1.1c4.2,3.4,7.2,7.1,9,10.8
		c-2.9,9.7-7.1,16.7-12.6,20.9c-1.8-5.8-5.4-11-10.7-15.5l-18.5-15.5c-1.8,2.2-3,5.3-3.4,9.4h11.6c-0.7,5.7-3.3,12-7.6,18.6
		c-1.7-0.2-3.9-0.4-6.6-0.4h-20c2.1-2.3,3.3-5.4,3.8-9.2c1.4-11.6,5.4-20.6,12-27c-2.1-1.8-3.9-3.5-5.4-5.3
		c-1.5-1.8-2.7-3.6-3.6-5.4c2.7-8.4,6.9-15.4,12.6-20.9c1.8,5.9,5.4,11,10.7,15.5l17.5,14.7c2.1-2.1,3.3-4.5,3.6-7.3h-0.7
		c-1.6,0-3.4-0.5-5.5-1.4c-2.1-0.9-3.5-1.8-4.2-2.6c1.6-7.4,4.7-13.7,9.2-18.9c3.9,3,8.7,4.6,14.6,4.6h7.5
		C381.4,4.8,382.1,5.2,382.1,6.1"/>
	<path class="st2" d="M170.9,17.7c0,2.5-4.6,3.7-10.6,3.7c-6.1,0-11.4-1.3-11.4-3.7c0-2.5,7.2-4.5,13.3-4.5
		C168.3,13.2,170.9,15.2,170.9,17.7"/>
	<path class="st3" d="M150.9,16.2c-1.6,2.7,2.6,3.7,8.7,3.8C154.4,19.4,150.6,18.5,150.9,16.2"/>
	<path class="st2" d="M142.8,31.5c0,3.2-4.5,5.9-12.2,5.9c-7.7,0-15.6-2.6-15.6-5.9c0-3.2,7.4-6.5,15.1-6.5
		C137.8,25,142.8,28.3,142.8,31.5"/>
	<path class="st3" d="M118.6,29c-3.6,3.8,1.9,6.5,12.9,6.8C118.9,34.4,118.2,31.5,118.6,29"/>
	<path class="st2" d="M124.6,53.5c0,4.6-10.9,8.8-20.8,8.2c-8.9-0.5-15.2-3.7-15.2-8.2c0-4.6,4.5-7.6,14.5-7.6
		C113,45.9,124.6,49,124.6,53.5"/>
	<path class="st3" d="M91.3,51.5c-0.9,7.9,14.1,9.4,25.6,5.5C104.9,59.1,94,57.5,91.3,51.5"/>
	<path class="st2" d="M122.5,82.9c0,5.4-10,8.2-23.4,8.2c-13.4,0-25.1-2.8-25.1-8.2c0-5.4,11.8-9.6,25.2-9.6
		C112.6,73.3,122.5,77.5,122.5,82.9"/>
	<path class="st3" d="M77.8,79.9c-4.2,7.5,19.5,11.3,38.5,6.3C95.7,89.1,77.9,84.1,77.8,79.9"/>
	<path class="st2" d="M9.8,157.4c0,0.2,0,0.7-0.1,1.3c-0.1,0.7-0.2,1.5-0.4,2.6c-0.3,2.1-0.7,4.8-1.3,8.1c-0.5,3.4-1.2,7.4-1.9,12.1
		c-1.1,6.2-3,9.9-5.4,11.2c-0.4-0.4-0.6-1-0.6-1.7c0-1.5,0.4-3.8,1.1-6.9c0.5-2,0.9-3.6,1.1-4.8c0.3-1.2,0.4-2,0.5-2.3
		c0.2-2,0.5-4.5,1-7.7c0.4-3.2,1-7,1.7-11.6c0.3-1.7,1.2-2.6,2.6-2.6c0,0,0.2,0,0.4,0.1C9.3,155.3,9.8,156,9.8,157.4 M25.5,188
		c0,0.2-0.1,0.5-0.4,0.7c-0.3,0.3-0.5,0.5-0.8,0.7c-1.5,1.1-2.6,1.6-3.3,1.6h-2.3c-2.8,0-5.4-1.2-7.6-3.6c-2.2-2.4-3.3-5.4-3.3-8.9
		c0-1.5,0.6-2.9,1.8-4.4c1.2-1.5,2.7-2.7,4.5-3.6c0.1,0,0.4-0.3,1.1-0.8c0.3-0.2,0.7-0.4,1.1-0.4h0.1c1.2,0,1.9,1.1,1.9,3.4
		c0,1-0.5,1.8-1.5,2.3c-0.3,0.1-1.2,0.4-2.8,0.9c-1.3,0.4-1.9,1.3-1.9,2.8c0,2.3,1.2,4.3,3.6,6.1c2.1,1.6,4.3,2.5,6.8,2.8
		c0.1,0,0.2,0,0.3,0.1s0.2,0,0.4,0c0.2,0,0.6,0,1.1-0.1c0.5,0,0.9-0.1,1.1-0.1C25.5,187.9,25.5,188,25.5,188"/>
	<path class="st2" d="M57,139.2c0,1.2-2.7,2.4-8,3.5c-3.6,0.7-6.6,3.3-8.8,7.7c-1.8,3.3-3,7.2-3.7,11.7c-0.5,3.1-1,6.5-1.6,10.3
		c-0.6,3.8-1.2,8.1-1.9,12.8c-0.1,1-0.2,1.8-0.4,2.4c-0.1,0.6-0.2,1.1-0.4,1.5c-0.5,1.3-1.2,1.9-2.3,1.9h-0.2c-2,0-3-1.2-3-3.6V187
		l0.1-0.2c0.1-1.6,0.5-3,1.1-4.1c0.7-1.2,1-1.9,1-2.1c0.4-2.3,0.8-4.9,1.3-7.8c0.4-2.9,1-6.1,1.5-9.6c0.9-6.5,2.4-11.8,4.5-15.9
		c2.5-4.9,7.2-7.8,14.2-8.9c0.6-0.1,1.1-0.2,1.7-0.2c0.6,0,1.1-0.1,1.7-0.1c1.8,0,2.8,0.3,3.1,0.8C56.9,139,57,139.1,57,139.2"/>
	<path class="st2" d="M68.2,177.9c0,0.3,0,0.5,0,0.8c0,0.3,0,0.6-0.1,0.9c-0.3,4-2.1,7.4-5.2,10c-3.1,2.6-6.7,3.9-10.9,3.9
		c-2.1,0-4-0.5-5.7-1.5c-1.9-1.1-2.9-2.7-2.9-4.7c0-2.5,1-4.8,3-6.9c2-2.1,4.3-3.1,6.8-3.1c0.7,0,1.2,0,1.6,0.1
		c1.6,0.3,2.5,1,2.5,1.9c0,0.8-0.8,1.7-2.4,2.8c-0.4,0.4-0.9,0.6-1.4,0.6c-0.2,0-0.5,0-0.7-0.1c-0.6-0.3-1.2-0.5-1.8-0.5
		c-0.9,0-1.8,0.4-2.5,1.1c-0.7,0.7-1.2,1.5-1.3,2.4c0,0.1-0.1,0.3-0.1,0.5c0,1.9,1.6,2.9,4.7,2.9h0.5c2.8,0,5.3-0.8,7.6-2.4
		c2.3-1.6,3.8-3.8,4.2-6.5c0-0.3,0.1-0.6,0.1-0.9c0-0.3,0-0.6,0-0.9c0-2.2-0.8-4-2.4-5.4c-1.5-1.3-3.7-2-6.4-2c-2.2,0-4.5,0.5-7,1.4
		c-0.2,0.1-0.4,0.1-0.7,0.1c-0.7,0-1.3-0.3-1.8-0.9c-0.5-0.6-0.8-1.2-0.8-1.9c0-1.1,0.6-1.9,1.9-2.3c2.9-0.9,5.7-1.3,8.3-1.3
		c3.9,0,7.1,1,9.4,3.1C67,171,68.2,174,68.2,177.9"/>
	<path class="st2" d="M80.5,168.8c0,0.2,0,0.5-0.1,0.7c0,0.3-0.1,0.6-0.2,1c-0.1,0.3-0.2,0.7-0.4,1c-0.4,0.9-0.7,1.6-0.8,2
		c-0.2,1.3-0.5,2.8-0.9,4.8c-0.4,1.9-0.8,4.2-1.3,6.8c-0.8,4.2-2.1,6.2-3.9,6.2h-0.4c0,0-0.1,0-0.3,0.1c-0.1,0-0.2,0.1-0.3,0.1
		l-0.8-0.1c0.4-2.1,0.9-4.7,1.5-7.9c0.6-3.2,1.3-7,2.1-11.4c0.1-0.7,0.3-1.5,0.4-2.2c0.2-0.7,0.3-1.5,0.5-2.2c0.4-1.5,1-2.2,2-2.2
		c0.2,0,0.3,0,0.5,0.1h-0.1C79.7,165.6,80.5,166.8,80.5,168.8"/>
	<path class="st2" d="M107.5,166.4l-0.1,0.2c-0.8,6.6-2.5,14.3-5,23.3c-0.4,1.4-1.2,2.1-2.5,2.1h-0.3c-0.3-0.1-0.6-0.1-1,0
		c-0.4,0.1-0.6,0.1-0.6,0.1c-0.5,0-1-0.3-1.5-1c-1.2-1.5-3.1-6.9-5.8-16.1c-0.7,1.3-1.5,4.1-2.7,8.4c-0.7,3-1.4,5.9-2.2,8.7
		c-0.1,0.6-0.2,1.1-0.4,1.7c-0.1,0.6-0.2,1.2-0.4,1.8c-0.4,1.4-1,2.2-1.9,2.6c-0.1,0.1-0.3,0.2-0.6,0.3c-0.3,0.1-0.7,0.3-1.1,0.5
		h-0.3c-0.4,0-0.6-0.6-0.6-1.9c0-2.6,0.7-6.9,2.2-12.8c1.4-5.8,2.6-9.7,3.6-11.7c0.6-1.2,1.3-1.9,2.3-2.2c1-0.4,1.7-0.5,2.1-0.5
		c0.8,0,1.5,0.3,2.1,1c0.7,0.9,1.8,3.5,3.1,7.7c0.9,2.8,1.8,5.6,2.6,8.4c0.2-0.2,0.9-3.4,2.1-9.8c1.3-7.1,1.9-10.6,1.9-10.6
		c0.5-2.1,1.3-3.2,2.2-3.2c1.7,0,2.5,0.9,2.5,2.7V166.4z"/>
	<path class="st2" d="M137.5,166.4c0,0.2,0,0.4,0,0.5c0,0.2,0,0.3-0.1,0.4c-0.2,1.3-0.9,3.5-2,6.6c-0.2,0.7-0.4,1.4-0.6,2.1
		c-0.2,0.7-0.4,1.4-0.7,2.1c-0.4,1.4-1.2,2.1-2.2,2.1h-0.5c-0.2,0-0.5-0.6-0.8-1.7c-0.2-0.7-0.3-1.4-0.3-2.1c0-0.6,0.2-2.2,0.7-4.6
		c0.2-1.2,0.8-3.1,1.7-5.5c0.1-0.4,0.2-0.8,0.4-1.1c0.1-0.4,0.3-0.7,0.4-1.1c0.3-0.8,0.7-1.1,1.3-1.1h0.3v-0.1
		C136.7,163.4,137.5,164.5,137.5,166.4"/>
	<path class="st2" d="M159.8,167.1c0,1.9-0.4,3.5-1.1,4.9c-1.3,2.4-3.2,4.7-5.7,6.9c-0.1,0.1-0.7,0.6-1.7,1.3
		c-1,0.7-2.3,1.8-4.2,3.2l-1.3,1c-0.4,0.4-0.6,0.8-0.6,1.2v0.5c0,0.2-0.1,0.4-0.1,0.5c0,3.2,1,4.8,3,4.8c1.1,0,2.5-0.7,4.2-2
		c0.4-0.7,1-1.5,1.9-2.6c1.4,1.1,2.1,2.2,2.1,3.5c0,1-0.6,2.1-1.9,3.3c-2.5,1.7-4.7,2.5-6.5,2.5c-2.3,0-4-1.1-5.4-3.3
		c-1-1.7-1.6-3.6-1.7-5.6c0-0.4-0.5-0.7-1.5-0.8c-0.9-0.1-1.5-0.3-1.8-0.7c0.1-0.1,0.9-0.6,2.1-1.4c0.8-0.5,1.2-1.1,1.3-1.9
		c0.4-2.1,0.8-4.3,1.3-6.4c0.4-2.1,1-4.3,1.7-6.5c2.2-6.6,5.3-9.9,9.4-9.9c1.1,0,2.2,0.3,3.2,0.9C158.7,161.8,159.8,164,159.8,167.1
		 M155.8,166.7c0-2.2-0.8-3.3-2.4-3.3c-1.6,0-3.2,2.4-4.8,7.1c-0.4,1.5-0.8,2.9-1.2,4.3c-0.4,1.4-0.8,2.9-1.2,4.3
		c1.2-0.9,2.5-1.9,3.8-2.9c1.3-1,2.5-2.3,3.7-3.8C155.1,170.6,155.8,168.7,155.8,166.7"/>
	<path class="st2" d="M178.2,168.6c0,0.1,0,0.3-0.1,0.5c0,0.2-0.1,0.4-0.2,0.7c-0.1,0.3-0.2,0.6-0.3,0.9c-0.1,0.4-0.2,0.8-0.2,1.4
		c-1.1,8.3-2.9,14.5-5.3,18.5c-3.6,5.9-9.3,9.1-17,9.5h-0.5c0.2,0-0.3-0.1-1.5-0.2c-0.4-0.1-0.8-0.2-1.1-0.4c-0.3-0.2-0.7-0.4-1-0.7
		c-0.3-0.3-0.6-0.5-0.9-0.8c-0.3-0.3-0.5-0.6-0.8-0.9c2,0,3.6-0.2,4.8-0.5l4.5-1.4c3.6-1,6.3-2.7,8-5.2c2-2.9,3.8-8.1,5.4-15.7
		c0.2-0.8,0.5-3.2,1.1-7.2c0.1-0.7,0.2-1.2,0.2-1.6c0.1-0.4,0.1-0.7,0.2-0.8c0.2-0.8,0.7-1.2,1.5-1.3v0.1h0.3c0.3,0,0.7,0.1,1,0.3
		c0.3,0.2,0.6,0.4,0.9,0.7c0.3,0.3,0.5,0.6,0.6,1c0.2,0.4,0.3,0.8,0.3,1.2c0,0.6,0.1,1,0.1,1.3C178.2,168.3,178.2,168.5,178.2,168.6
		"/>
	<path class="st2" d="M219.8,183c0,3.3-0.8,6.1-2.5,8.5c-1.9,2.7-4.2,4-7.1,4h-0.8c-2.1-0.1-3.8-1-5.2-2.6c-1.3-1.6-2-3.4-2-5.5
		v-0.2c0-1.6,0.3-3.2,0.8-4.7c0.6-1.6,1.1-3.1,1.7-4.5c0.3-0.8,0.6-1.6,1-2.6c0.4-1,0.7-2.1,1.1-3.3c-1.7-1.1-2.8-1.8-3.2-2
		c-1.1-0.5-2.3-0.8-3.6-0.8c0-0.2-0.1-0.5-0.1-0.8c0-1.9,1.1-2.9,3.2-2.9c0.7,0,2.7,0.8,5.8,2.4c0.4-0.7,0.9-1.7,1.6-3.1
		c0.7-1.4,1.5-3.2,2.5-5.4c0.7-1.5,1.7-2.3,3.1-2.3c0.4,0,0.6,0.1,0.8,0.2c0.4,0.2,0.8,0.7,1.1,1.4c0,0.6-1.8,4.5-5.3,11.8
		C217.5,174.2,219.8,178.2,219.8,183 M215.4,183.5c0-3.7-1.5-6.5-4.6-8.5c-0.3,0.5-0.6,1.2-1.1,2.3c-0.4,1-1,2.4-1.6,4.1
		c-1.2,3.1-1.8,5.2-1.8,6.3c0,0,0,0.2,0.1,0.4v0.4c0.5,2.2,1.2,3.4,2.3,3.6c0.4,0.1,0.7,0.1,1,0.1c2.5,0,4.3-1.9,5.3-5.7
		C215.3,185.4,215.4,184.4,215.4,183.5"/>
	<path class="st2" d="M250.8,178.8c0,4.1-1.6,7.3-4.7,9.6c-3.2,2.3-7.4,3.4-12.8,3.4c-2.4,0-4.6-0.9-6.3-2.6
		c-1.7-1.8-2.6-3.9-2.6-6.3c0-3.9,2.1-7.6,6.2-11c-0.3-0.5-0.5-0.8-0.5-1.1c0-2.3,2.2-3.5,6.5-3.5h0.7c0.2,0,0.3,0,0.4,0.1
		c0.1,0,0.2,0,0.3,0c3.8,0.4,6.9,1.6,9.2,3.6C249.6,173,250.8,175.7,250.8,178.8 M246.1,176.9c0-1.6-0.8-2.9-2.5-3.9
		c-1.4-0.8-2.8-1.2-4.2-1.2c-0.3,0-0.7,0-1.1,0.1c-0.2,0.7-0.4,1.2-0.8,1.5c-0.3,0.2-1,0.6-2.2,1c-4.2,1.6-6.2,4.5-6.2,8.5v0.8
		c0.1,2.1,1.4,3.2,3.7,3.3h0.8c3.1,0,5.9-0.9,8.4-2.7C244.7,182.4,246.1,179.9,246.1,176.9"/>
	<path class="st2" d="M278.6,166.4l-0.1,0.2c-0.8,6.6-2.5,14.3-5,23.3c-0.4,1.4-1.2,2.1-2.5,2.1h-0.3c-0.3-0.1-0.6-0.1-1,0
		c-0.4,0.1-0.6,0.1-0.6,0.1c-0.5,0-1-0.3-1.5-1c-1.2-1.5-3.1-6.9-5.8-16.1c-0.7,1.3-1.5,4.1-2.7,8.4c-0.7,3-1.4,5.9-2.2,8.7
		c-0.1,0.6-0.2,1.1-0.4,1.7c-0.1,0.6-0.2,1.2-0.4,1.8c-0.4,1.4-1,2.2-1.9,2.6c-0.1,0.1-0.3,0.2-0.6,0.3c-0.3,0.1-0.7,0.3-1.1,0.5
		h-0.3c-0.4,0-0.6-0.6-0.6-1.9c0-2.6,0.7-6.9,2.2-12.8c1.4-5.8,2.6-9.7,3.6-11.7c0.6-1.2,1.3-1.9,2.3-2.2c1-0.4,1.7-0.5,2.1-0.5
		c0.8,0,1.5,0.3,2.1,1c0.7,0.9,1.8,3.5,3.1,7.7c0.9,2.8,1.8,5.6,2.6,8.4c0.2-0.2,0.9-3.4,2.1-9.8c1.3-7.1,1.9-10.6,1.9-10.6
		c0.5-2.1,1.3-3.2,2.2-3.2c1.7,0,2.5,0.9,2.5,2.7V166.4z"/>
	<path class="st0" d="M159.8,107.4c1.5,0.6,3,1.3,4.5,2.1c1.4,0.9,2.8,1.9,4.1,3.1c1.3,1.2,2.5,2.6,3.3,4.3c0.4,0.9,0.8,1.8,0.9,2.8
		c0.1,0.5,0.1,1,0.1,1.5l0,0.2l0,0.2c0,0.1,0,0.2,0,0.4c0,0.3,0,0.5-0.1,0.8c-0.2,2-0.9,3.9-1.9,5.5c-0.9,1.7-2.1,3.1-3.4,4.4
		c-1.3,1.3-2.6,2.4-4,3.4c-1.4,1-2.9,1.9-4.3,2.8c-1.5,0.8-3,1.6-4.5,2.3c-1.5,0.7-3.1,1.3-4.6,1.9c-3.1,1.1-6.3,2.1-9.5,2.9
		c-6.4,1.5-12.9,2.4-19.4,2.9c-13,0.8-26.1-0.1-38.8-3.4c-6.3-1.7-12.6-3.9-18.5-7.4c-1.4-0.9-2.9-1.8-4.2-2.9
		c-1.4-1.1-2.7-2.2-3.8-3.6c-1.2-1.3-2.2-2.8-3-4.5c-0.7-1.7-1.2-3.6-1.1-5.5c0.1,1.9,0.6,3.7,1.5,5.2c0.8,1.6,1.9,2.9,3.1,4.1
		c2.4,2.4,5.2,4.2,8.1,5.8c2.9,1.5,5.9,2.8,9,3.8c3.1,1,6.2,1.9,9.3,2.6c6.3,1.4,12.7,2.3,19.1,2.7c6.4,0.4,12.8,0.4,19.2,0
		c6.4-0.4,12.8-1.3,19-2.7c6.3-1.4,12.4-3.4,18.2-6.3c2.9-1.5,5.7-3.3,8.1-5.5c1.2-1.1,2.3-2.4,3.2-3.8c0.9-1.4,1.6-3,1.8-4.7
		c0-0.2,0.1-0.4,0.1-0.6c0-0.1,0-0.2,0-0.3l0-0.2l0-0.2c0-0.4,0-0.8-0.1-1.3c-0.1-0.8-0.3-1.7-0.7-2.5c-0.7-1.6-1.7-3-2.9-4.2
		c-1.2-1.2-2.5-2.3-3.8-3.3C162.8,108.9,161.3,108.1,159.8,107.4"/>
	<path class="st0" d="M157,120.2c0.1,1.5-0.4,3-1.2,4.3c-0.8,1.3-1.8,2.4-2.9,3.3c-2.2,1.9-4.8,3.3-7.4,4.5
		c-5.3,2.3-10.8,3.8-16.4,4.8c-11.2,2-22.7,2.2-34,0.8c-2.8-0.4-5.6-0.8-8.4-1.4c-2.8-0.6-5.6-1.3-8.3-2.3c-2.7-1-5.4-2.1-8-3.6
		c-1.3-0.7-2.5-1.6-3.7-2.6c-1.1-1-2.2-2.2-3-3.6c-0.4-0.7-0.7-1.5-0.9-2.3c-0.2-0.8-0.3-1.7-0.2-2.6c0.2-1.7,0.9-3.3,1.9-4.5
		c1-1.2,2.1-2.2,3.3-3.1c1.2-0.9,2.5-1.6,3.8-2.2c2.6-1.3,5.3-2.2,8-3c1.4-0.4,2.7-0.7,4.1-1c1.4-0.3,2.8-0.5,4.2-0.7
		c-1.4,0.3-2.7,0.7-4.1,1.1c-1.4,0.4-2.7,0.8-4,1.3c-2.6,1-5.3,2.1-7.7,3.4c-1.2,0.7-2.4,1.4-3.5,2.3c-1.1,0.9-2.1,1.8-2.9,2.9
		c-0.8,1.1-1.3,2.3-1.4,3.6c-0.1,1.3,0.3,2.5,1,3.6c0.7,1.1,1.6,2.1,2.7,2.9c1.1,0.9,2.2,1.6,3.4,2.3c2.4,1.3,5,2.4,7.6,3.2
		c5.3,1.7,10.8,2.8,16.3,3.5c5.5,0.7,11.1,1,16.7,1c5.6,0,11.2-0.4,16.7-1.2c2.8-0.4,5.5-0.9,8.2-1.5c2.7-0.6,5.4-1.4,8-2.4
		c2.6-1,5.2-2.2,7.5-3.9c1.1-0.8,2.2-1.8,3-3C156.3,123.1,156.9,121.7,157,120.2"/>
	<path class="st2" d="M149.7,118c0,8.7-14.8,13.3-34.7,13.3c-19.9,0-37.2-4.5-37.2-13.3c0-8.7,9.3-13.3,38-13.8
		C135.7,103.8,149.7,109.2,149.7,118"/>
	<path class="st3" d="M82.1,114.7c-3.3,10.2,28.9,16.7,57.2,9.3C108.6,128.3,85.1,120.5,82.1,114.7"/>
</g>
</svg>
